<?xml version="1.0" standalone="no"?>
<!DOCTYPE svg PUBLIC "-//W3C//DTD SVG 20010904//EN"
 "http://www.w3.org/TR/2001/REC-SVG-20010904/DTD/svg10.dtd">
<svg version="1.0" xmlns="http://www.w3.org/2000/svg"
 width="1387.000000pt" height="1387.000000pt" viewBox="0 0 1387.000000 1387.000000"
 preserveAspectRatio="xMidYMid meet">
<metadata>
Created by potrace 1.14, written by Peter Selinger 2001-2017
</metadata>
<g transform="translate(0.000000,1387.000000) scale(0.100000,-0.100000)"
fill="#000000" stroke="none">
<path d="M7155 13821 c-823 -282 -1605 -781 -2094 -1336 -140 -158 -203 -240
-317 -411 -236 -355 -402 -764 -479 -1175 -52 -280 -49 -126 -52 -2736 -3
-2128 -5 -2423 -18 -2423 -10 0 -383 736 -1075 2119 l-1059 2120 82 44 c45 24
193 102 329 172 l247 128 -92 179 c-51 98 -95 178 -98 178 -4 0 -215 -108
-469 -241 -380 -198 -465 -238 -475 -227 -6 7 -175 328 -375 713 -199 385
-365 703 -367 708 -3 5 -520 -250 -540 -268 -2 -1 166 -327 373 -724 207 -397
374 -724 373 -725 -2 -2 -214 -112 -471 -246 l-467 -242 82 -157 c44 -86 88
-167 96 -182 l16 -25 320 167 c176 93 325 168 330 168 7 0 1468 -2689 2107
-3879 l57 -106 -81 -58 c-333 -242 -593 -599 -782 -1078 -39 -101 -485 -1446
-854 -2583 -223 -683 -530 -1637 -537 -1667 l-7 -28 6448 4 c3547 2 6450 5
6451 5 1 1 -7 27 -17 58 -10 32 -107 333 -215 668 -490 1520 -1109 3399 -1177
3570 -256 645 -682 1093 -1233 1300 -184 69 -399 114 -627 130 l-88 7 0 2374
c0 2062 -2 2394 -15 2520 -63 595 -277 1135 -643 1618 -466 616 -1194 1140
-2053 1479 -133 53 -380 139 -391 136 -2 0 -66 -22 -143 -48z m2585 -4276 l0
-185 -1050 0 -1050 0 0 185 0 185 1050 0 1050 0 0 -185z m-2762 -2 l-3 -178
-1047 -3 -1048 -2 0 180 0 180 1050 0 1050 0 -2 -177z m2 -593 l0 -150 -885 0
-885 0 0 150 0 150 885 0 885 0 0 -150z m2430 0 l0 -150 -885 0 -885 0 0 150
0 150 885 0 885 0 0 -150z"/>
</g>
</svg>
